<?xml version="1.0" standalone="no"?>
<!DOCTYPE svg PUBLIC "-//W3C//DTD SVG 20010904//EN"
 "http://www.w3.org/TR/2001/REC-SVG-20010904/DTD/svg10.dtd">
<svg version="1.0" xmlns="http://www.w3.org/2000/svg"
 width="532.000000pt" height="498.000000pt" viewBox="0 0 532.000000 498.000000"
 preserveAspectRatio="xMidYMid meet">

<g transform="translate(0.000000,498.000000) scale(0.100000,-0.100000)"
fill="#000000" stroke="none">
<path d="M2395 4525 c-277 -33 -580 -137 -800 -275 -303 -191 -565 -483 -725
-810 -81 -164 -184 -510 -166 -557 4 -8 2 -21 -3 -27 -5 -6 -14 -51 -20 -101
-44 -364 70 -848 279 -1180 206 -327 478 -577 800 -735 139 -68 435 -163 509
-162 14 0 32 -5 40 -12 10 -7 96 -11 280 -11 311 0 370 9 638 99 291 98 479
212 697 425 76 75 164 170 196 212 88 114 172 249 166 265 -3 8 1 17 10 21 39
15 162 343 206 551 20 95 22 136 23 355 0 193 -3 249 -13 256 -8 5 -11 17 -7
34 10 38 -20 168 -79 344 -62 184 -103 273 -123 266 -7 -3 -13 -1 -13 5 0 6 5
12 10 14 13 4 -94 176 -178 285 -33 43 -122 139 -198 214 -218 213 -412 331
-704 427 -182 61 -261 78 -430 98 -165 18 -170 18 -170 -5 0 -14 8 -21 28 -24
26 -4 25 -4 -5 -6 -24 -1 -33 -6 -36 -23 -4 -20 -4 -19 -6 5 -1 22 -6 27 -28
28 l-28 1 29 7 c16 3 31 12 34 19 5 15 -62 14 -213 -3z m635 -70 c0 -8 -7 -15
-15 -15 -16 0 -20 12 -8 23 11 12 23 8 23 -8z m-1087 -121 l32 18 -29 -24 -30
-25 23 -34 23 -34 -26 30 c-24 28 -28 29 -48 16 -22 -13 -22 -13 -6 6 16 18
17 21 1 44 l-17 24 23 -19 c21 -19 23 -19 54 -2z m895 -87 c2 -10 -3 -17 -12
-17 -18 0 -29 16 -21 31 9 14 29 6 33 -14z m342 -37 c0 -5 -4 -10 -10 -10 -5
0 -10 5 -10 10 0 6 5 10 10 10 6 0 10 -4 10 -10z m181 -93 c-1 -12 -15 -9 -19
4 -3 6 1 10 8 8 6 -3 11 -8 11 -12z m-1491 -32 c0 -8 -7 -15 -15 -15 -16 0
-20 12 -8 23 11 12 23 8 23 -8z m1122 -95 l33 22 -30 -26 -30 -26 18 -32 19
-33 -27 25 c-23 22 -28 23 -48 11 -22 -14 -22 -14 -3 7 18 21 18 23 1 49 l-18
28 26 -24 26 -23 33 22z m-560 -347 l257 -180 -121 -86 -121 -86 -76 53 c-42
30 -183 128 -313 218 l-237 165 122 85 122 86 55 -38 c30 -21 171 -118 312
-217z m-502 211 c0 -8 -4 -12 -10 -9 -5 3 -10 10 -10 16 0 5 5 9 10 9 6 0 10
-7 10 -16z m1711 -251 c8 -7 23 -13 32 -13 26 0 25 -170 -1 -193 -39 -35 -137
-71 -204 -75 l-68 -4 118 117 117 117 -65 -35 c-176 -95 -339 -87 -403 22 -43
74 1 182 108 260 l39 29 156 -105 c85 -59 162 -112 171 -120z m-67 121 c-32
-25 -42 -28 -63 -15 -10 6 -2 16 30 39 37 25 45 28 53 15 6 -11 0 -22 -20 -39z
m-2034 -174 c0 -5 -4 -10 -10 -10 -5 0 -10 5 -10 10 0 6 5 10 10 10 6 0 10 -4
10 -10z m1663 -117 c75 -52 137 -97 137 -101 -1 -9 -686 -497 -695 -496 -11 3
-294 199 -294 204 0 13 693 499 703 493 6 -4 73 -49 149 -100z m834 1 c-3 -3
-12 -4 -19 -1 -8 3 -5 6 6 6 11 1 17 -2 13 -5z m-2335 -123 c23 12 23 12 4 -9
-18 -21 -18 -23 -1 -49 l18 -28 -26 24 c-26 23 -27 23 -54 6 l-28 -18 24 26
c23 26 23 27 6 54 l-18 28 26 -23 c22 -21 28 -22 49 -11z m974 -6 c2 -5 -8
-18 -22 -28 -21 -16 -28 -16 -41 -6 -13 12 -13 15 8 31 23 19 50 21 55 3z
m684 -99 l0 -75 -94 -65 c-87 -61 -117 -86 -101 -86 3 0 33 18 66 40 l59 41
83 -58 c46 -32 190 -132 320 -223 l237 -165 0 -50 c0 -57 19 -39 -178 -177
l-82 -58 -48 33 c-345 243 -459 320 -469 320 -7 0 -11 3 -9 6 2 3 -22 24 -55
46 l-59 40 0 58 c0 56 0 57 -22 46 -12 -7 -65 -43 -118 -81 l-95 -69 125 121
125 121 -24 18 -24 18 27 18 c21 14 32 16 50 7 20 -9 34 2 152 119 71 71 130
129 132 129 1 0 2 -33 2 -74z m-1195 -34 c9 -6 22 -39 40 -99 4 -16 1 -22 -12
-25 -13 -3 -5 -11 27 -27 70 -36 102 -71 65 -71 -8 0 -15 -3 -15 -7 0 -10 -49
-33 -70 -33 -12 0 -15 -10 -12 -47 3 -45 2 -47 -13 -28 -8 10 -34 26 -58 35
l-42 16 3 51 c2 28 -1 54 -6 57 -6 4 -8 -3 -5 -15 4 -16 2 -20 -8 -17 -8 3
-15 16 -15 29 -2 38 -15 59 -36 59 -25 0 -58 18 -58 32 0 10 24 8 116 -8 28
-5 33 -3 44 28 7 18 12 37 11 42 -2 9 18 36 28 36 3 0 11 -4 16 -8z m-235 -62
c0 -5 -4 -10 -10 -10 -5 0 -10 5 -10 10 0 6 5 10 10 10 6 0 10 -4 10 -10z
m2005 -20 c5 0 18 8 29 17 16 14 16 12 -3 -9 l-23 -27 22 -33 22 -33 -27 29
c-27 29 -27 29 -58 12 l-32 -17 27 23 c27 23 27 24 11 48 -16 25 -16 25 3 8
12 -10 24 -18 29 -18z m-2265 -5 c6 -8 9 -18 7 -22 -3 -5 0 -16 7 -25 11 -15
15 -15 41 8 16 13 41 24 57 24 16 0 38 5 49 11 11 5 37 9 57 7 l37 -4 -42 -8
c-23 -5 -57 -20 -75 -33 l-33 -25 59 5 c58 6 61 5 91 -27 17 -19 40 -35 50
-37 10 -2 20 -10 22 -16 3 -9 -9 -12 -43 -9 -33 2 -42 1 -31 -6 26 -14 20 -28
-12 -28 -25 0 -28 -3 -23 -26 3 -16 -1 -30 -9 -36 -11 -7 -9 -8 6 -6 11 2 21
10 21 18 1 8 2 19 3 24 0 6 13 -2 29 -16 15 -15 46 -31 69 -37 45 -12 73 -34
73 -57 0 -8 7 -14 15 -14 8 0 15 -7 15 -15 0 -11 -11 -15 -36 -15 -31 0 -35 3
-29 20 6 18 4 19 -22 9 -15 -6 -35 -16 -43 -23 -8 -8 -22 -16 -30 -19 -8 -3 0
-6 18 -6 38 -1 40 -13 8 -46 -16 -16 -31 -22 -46 -18 -31 8 -99 -17 -106 -39
-3 -11 -17 -24 -30 -30 -25 -12 -26 -14 -28 -63 -1 -40 -19 -44 -27 -5 -9 43
-13 45 -59 31 -45 -13 -70 -50 -70 -102 0 -28 3 -31 23 -25 58 17 89 16 114
-4 14 -11 31 -20 37 -20 6 0 24 -7 39 -15 16 -8 47 -20 70 -27 l42 -11 -30 -8
c-53 -12 -65 -10 -58 7 5 14 1 16 -20 12 -15 -3 -27 -2 -27 2 0 12 -78 60 -99
60 -26 0 -64 -60 -49 -77 6 -7 16 -13 24 -13 24 0 27 -21 8 -56 -17 -30 -17
-36 -4 -44 17 -11 27 -3 32 25 4 27 46 33 54 8 24 -73 24 -73 75 -73 38 0 49
-4 54 -18 4 -15 43 -42 59 -42 2 0 10 20 17 45 22 75 46 69 73 -17 16 -52 21
-58 49 -63 36 -6 296 -25 342 -25 l30 0 1 73 c1 39 5 80 9 90 6 15 4 18 -11
16 -10 -2 -25 0 -33 5 -7 5 -29 3 -52 -4 -38 -13 -41 -12 -69 15 -29 28 -29
30 -23 104 3 42 11 90 18 106 7 17 15 38 19 48 7 21 34 23 42 2 5 -13 8 -13
27 0 30 21 84 19 96 -2 9 -16 11 -15 20 8 5 15 15 29 22 31 7 2 9 12 5 26 -10
31 -30 28 -22 -3 8 -30 -10 -34 -19 -5 -3 11 -10 20 -15 20 -4 0 -10 -9 -13
-20 -3 -13 -14 -20 -30 -20 -14 0 -29 -4 -32 -10 -12 -19 -45 -10 -57 14 -15
34 -4 59 22 51 33 -10 37 22 6 50 -35 33 -33 45 9 45 32 0 35 2 35 29 0 17 4
32 10 36 5 3 34 -11 64 -30 45 -30 56 -44 66 -81 7 -25 19 -44 26 -44 8 0 14
-4 14 -10 0 -5 -4 -10 -8 -10 -5 0 -2 -35 5 -77 22 -124 -1 -281 -56 -394
l-30 -59 28 0 c18 0 34 8 45 23 15 21 16 21 29 5 11 -14 29 -18 76 -18 238 0
675 74 980 167 93 28 136 26 201 -7 22 -11 51 -36 66 -55 25 -33 172 -411 195
-502 16 -61 -4 -135 -49 -185 -26 -28 -32 -42 -24 -50 8 -8 19 -6 39 7 l28 18
-24 -26 c-21 -23 -22 -29 -11 -44 13 -17 13 -17 -5 -1 -17 16 -20 16 -49 -4
l-31 -22 23 25 c20 23 29 49 17 49 -2 0 -46 -14 -97 -30 -126 -41 -374 -103
-538 -134 -631 -119 -1285 -113 -1925 20 -266 55 -322 80 -365 165 -36 70 -30
122 49 374 76 240 100 293 154 326 65 40 97 42 229 14 68 -14 126 -25 130 -25
5 0 8 11 8 25 0 17 -5 25 -18 25 -28 0 -42 21 -42 61 0 43 -11 54 -64 62 -45
7 -78 34 -71 57 3 10 -12 32 -41 60 -27 26 -42 36 -35 23 6 -12 11 -30 11 -40
-1 -15 -5 -13 -25 10 -14 15 -28 39 -31 53 -4 14 -18 37 -32 51 -23 23 -24 29
-18 88 6 58 5 65 -14 75 -21 11 -21 11 -1 48 10 20 27 65 37 99 20 66 35 81
57 58 13 -12 18 -10 37 11 13 13 31 24 40 24 8 0 26 7 39 16 19 14 27 14 47 4
33 -18 30 -25 -18 -40 -24 -8 -45 -17 -48 -21 -3 -3 -18 -9 -33 -13 -22 -5
-27 -4 -21 6 5 8 1 7 -11 -2 -16 -13 -16 -15 -2 -18 21 -4 137 30 137 40 0 4
9 8 21 8 13 0 18 -4 13 -12 -4 -7 -3 -8 4 -4 7 4 12 18 12 32 0 14 -4 23 -9
19 -16 -10 -18 28 -3 80 21 73 38 90 62 60z m-348 -120 c0 -5 -5 -11 -11 -13
-6 -2 -11 4 -11 13 0 9 5 15 11 13 6 -2 11 -8 11 -13z m1008 -50 c0 -16 -17
-19 -47 -8 -16 6 -15 8 7 14 38 11 40 10 40 -6z m1750 -40 c0 -8 -7 -15 -15
-15 -8 0 -15 7 -15 15 0 8 7 15 15 15 8 0 15 -7 15 -15z m-2860 -75 c0 -5 -7
-10 -15 -10 -8 0 -15 5 -15 10 0 6 7 10 15 10 8 0 15 -4 15 -10z m3288 -32
c-6 -18 -28 -21 -28 -4 0 9 7 16 16 16 9 0 14 -5 12 -12z m-571 -84 c-9 -9
-28 6 -21 18 4 6 10 6 17 -1 6 -6 8 -13 4 -17z m-1947 -74 c0 -5 -4 -10 -10
-10 -5 0 -10 5 -10 10 0 6 5 10 10 10 6 0 10 -4 10 -10z m160 -145 c0 -8 -4
-15 -9 -15 -13 0 -22 16 -14 24 11 11 23 6 23 -9z m-1010 -20 c0 -8 -7 -15
-15 -15 -16 0 -20 12 -8 23 11 12 23 8 23 -8z m2240 -45 c0 -5 -7 -10 -15 -10
-8 0 -15 5 -15 10 0 6 7 10 15 10 8 0 15 -4 15 -10z m-2210 -50 c0 -21 -24
-28 -35 -10 -8 14 3 30 21 30 8 0 14 -9 14 -20z m1646 -11 c10 -17 -13 -36
-27 -22 -12 12 -4 33 11 33 5 0 12 -5 16 -11z m1069 -19 c-5 -8 -11 -8 -17 -2
-6 6 -7 16 -3 22 5 8 11 8 17 2 6 -6 7 -16 3 -22z m10 -60 c0 -22 -29 -18 -33
3 -3 14 1 18 15 15 10 -2 18 -10 18 -18z m-627 -21 c-2 -6 -8 -10 -13 -10 -5
0 -11 4 -13 10 -2 6 4 11 13 11 9 0 15 -5 13 -11z m-2122 -113 l-29 -24 22
-33 23 -34 -25 29 c-25 29 -25 29 -54 11 l-28 -18 22 24 c17 19 19 28 12 42
-10 16 -9 17 9 6 17 -10 24 -10 44 4 34 24 37 20 4 -7z m1514 -36 c0 -5 -4
-10 -10 -10 -5 0 -10 5 -10 10 0 6 5 10 10 10 6 0 10 -4 10 -10z m1449 -62
l26 16 -20 -22 c-17 -20 -17 -26 -6 -45 14 -22 14 -22 -7 -3 -21 18 -23 18
-49 1 l-28 -18 24 26 c21 23 22 29 11 44 -13 17 -13 17 4 1 18 -15 21 -15 45
0z m-2954 -197 c3 -5 1 -12 -5 -16 -5 -3 -10 1 -10 9 0 18 6 21 15 7z m3073
-108 c2 -8 -5 -13 -17 -13 -12 0 -21 6 -21 16 0 18 31 15 38 -3z m-2094 -630
c31 17 31 17 9 -2 -26 -22 -29 -40 -10 -61 6 -8 2 -6 -10 4 -22 18 -24 18 -50
1 l-28 -18 24 26 23 26 -22 33 -22 33 27 -29 c27 -30 28 -30 59 -13z m586 22
c0 -8 -4 -15 -10 -15 -5 0 -10 7 -10 15 0 8 5 15 10 15 6 0 10 -7 10 -15z
m687 -137 c-3 -8 -6 -5 -6 6 -1 11 2 17 5 13 3 -3 4 -12 1 -19z m-1077 -188
c0 -23 -25 -27 -33 -6 -7 16 1 26 20 26 7 0 13 -9 13 -20z m20 -85 c0 -8 -4
-15 -9 -15 -13 0 -22 16 -14 24 11 11 23 6 23 -9z"/>
<path d="M2016 3850 c-21 -16 -41 -31 -43 -33 -4 -5 77 -67 87 -67 4 0 27 15
53 33 l47 33 -45 32 c-25 18 -49 32 -53 32 -4 0 -24 -14 -46 -30z"/>
<path d="M1896 3763 l-48 -35 48 -34 47 -34 36 27 c20 14 42 31 48 36 12 8
-18 37 -72 69 -6 4 -32 -9 -59 -29z"/>
<path d="M2137 3757 l-46 -33 49 -33 49 -33 45 33 c25 18 46 35 46 38 0 6 -83
61 -92 61 -2 0 -25 -15 -51 -33z"/>
<path d="M2025 3679 c-22 -17 -41 -34 -43 -38 -3 -9 72 -61 87 -61 6 0 31 14
55 32 l46 32 -50 33 c-27 18 -51 33 -52 32 -2 0 -21 -14 -43 -30z"/>
<path d="M2271 3675 c-24 -17 -43 -35 -43 -40 0 -4 19 -20 43 -35 l42 -28 47
31 c27 18 46 35 44 39 -3 4 -24 21 -47 36 l-42 29 -44 -32z"/>
<path d="M2147 3586 l-48 -34 46 -32 c51 -35 59 -34 119 14 l28 21 -45 33
c-25 17 -47 32 -49 32 -2 0 -25 -15 -51 -34z"/>
<path d="M2397 3587 c-26 -18 -47 -35 -47 -38 0 -3 20 -19 44 -36 l44 -31 46
31 c25 18 46 35 46 38 0 3 -20 20 -44 37 l-43 31 -46 -32z"/>
<path d="M2273 3499 c-24 -17 -43 -32 -43 -34 0 -5 83 -65 90 -65 3 0 26 15
52 34 l47 33 -43 32 c-25 17 -48 31 -53 31 -4 -1 -27 -14 -50 -31z"/>
<path d="M2523 3499 c-24 -17 -43 -34 -43 -38 0 -4 19 -21 43 -38 l43 -31 43
32 c24 18 43 36 43 40 -1 7 -78 67 -84 66 -2 -1 -22 -14 -45 -31z"/>
<path d="M2395 3409 c-21 -17 -40 -31 -41 -32 -1 -1 19 -17 46 -35 l48 -33 46
32 c25 18 46 35 46 38 -1 10 -80 61 -93 60 -6 0 -30 -14 -52 -30z"/>
<path d="M1780 2980 c0 -5 -19 -10 -42 -10 -24 0 -38 -4 -32 -8 6 -4 14 -19
17 -33 6 -22 12 -26 39 -25 37 1 50 13 42 38 -2 9 0 19 6 23 6 3 8 11 5 16 -8
12 -35 12 -35 -1z"/>
<path d="M1650 2843 c-47 -24 -86 -48 -88 -53 -5 -13 35 -13 43 0 8 13 45 13
45 -1 0 -5 14 -15 30 -21 17 -5 35 -19 41 -29 16 -31 27 -22 35 26 4 31 2 50
-7 61 -9 11 -10 18 -2 22 8 5 8 12 0 23 -11 14 -22 11 -97 -28z"/>
<path d="M2565 2526 c4 -44 12 -56 21 -33 3 8 -2 28 -10 44 l-16 28 5 -39z"/>
</g>
</svg>
